<svg viewBox="0 0 24 24" xmlns="http://www.w3.org/2000/svg"><path fill="#9f7aea" d="M12 15.5A3.5 3.5 0 1 0 12 8.5a3.5 3.5 0 0 0 0 7zm8.94-2.24l-1.35-1.02a7.96 7.96 0 0 0 0-1.48l1.35-1.02a.5.5 0 0 0 .12-.65l-1.5-2.6a.5.5 0 0 0-.61-.22l-1.6.64a8.12 8.12 0 0 0-1.28-.74l-.24-1.7A.5.5 0 0 0 14.5 3h-3a.5.5 0 0 0-.5.43l-.24 1.7a8.12 8.12 0 0 0-1.28.74l-1.6-.64a.5.5 0 0 0-.61.22l-1.5 2.6a.5.5 0 0 0 .12.65l1.35 1.02c-.05.49-.05.99 0 1.48L3.57 13.3a.5.5 0 0 0-.12.65l1.5 2.6c.14.24.43.34.68.22l1.6-.64c.39.3.82.56 1.28.74l.24 1.7c.04.26.26.43.5.43h3c.24 0 .46-.18.5-.43l.24-1.7c.46-.18.89-.44 1.28-.74l1.6.64c.25.12.54.02.68-.22l1.5-2.6a.5.5 0 0 0-.12-.65z"/></svg>